<?xml version="1.0" encoding="utf-8"?>
<!-- Generator: Adobe Illustrator 19.2.1, SVG Export Plug-In . SVG Version: 6.00 Build 0)  -->
<svg version="1.1" id="レイヤー_1" xmlns="http://www.w3.org/2000/svg" xmlns:xlink="http://www.w3.org/1999/xlink" x="0px"
	 y="0px" viewBox="0 0 45 120" enable-background="new 0 0 45 120" xml:space="preserve">
<g id="XMLID_3_">
	<g>
		<polygon fill="#EFEFEF" points="8.1,42.8 26.9,0.6 44.5,0.6 18.1,60 9.8,41.5 		"/>
		<polygon fill="#EFEFEF" points="9.8,41.5 18.1,60 9.8,78.5 8.1,77.2 8.1,77.2 0.4,60 0.4,60 8.1,42.8 		"/>
		<polygon fill="#EFEFEF" points="8.1,77.2 9.8,78.5 18.1,60 44.5,119.4 26.9,119.4 		"/>
	</g>
	<g>
		<line fill="none" stroke="none" stroke-linecap="round" stroke-miterlimit="10" x1="44.5" y1="0.6" x2="18.1" y2="60"/>
		<polyline fill="none" stroke="none" stroke-linecap="round" stroke-miterlimit="10" points="0.4,60 8.1,42.8 26.9,0.6 		"/>
		<line fill="none" stroke="none" stroke-linecap="round" stroke-miterlimit="10" x1="44.5" y1="0.6" x2="26.9" y2="0.6"/>
		<line fill="none" stroke="none" stroke-linecap="round" stroke-miterlimit="10" x1="44.5" y1="119.4" x2="18.1" y2="60"/>
		<polyline fill="none" stroke="none" stroke-linecap="round" stroke-miterlimit="10" points="0.4,60 0.4,60 8.1,77.2 8.1,77.2 
			26.9,119.4 		"/>
		<line fill="none" stroke="none" stroke-linecap="round" stroke-miterlimit="10" x1="44.5" y1="119.4" x2="26.9" y2="119.4"/>
	</g>
</g>
</svg>
