<?xml version="1.0" encoding="utf-8"?>
<!-- Generator: Adobe Illustrator 19.2.1, SVG Export Plug-In . SVG Version: 6.00 Build 0)  -->
<svg version="1.1" id="レイヤー_1" xmlns="http://www.w3.org/2000/svg" xmlns:xlink="http://www.w3.org/1999/xlink" x="0px"
	 y="0px" viewBox="0 0 45 120" enable-background="new 0 0 45 120" xml:space="preserve">
<g id="XMLID_4_">
	<g>
		<polygon fill="#EFEFEF" points="0.4,0.6 26.9,60 35.1,41.5 36.9,42.8 18,0.6 		"/>
		<polygon fill="#EFEFEF" points="26.9,60 0.4,119.4 18.1,119.4 36.8,77.2 35.1,78.5 		"/>
		<polygon fill="#EFEFEF" points="35.1,41.5 26.9,60 35.1,78.5 36.8,77.2 36.8,77.2 44.5,60 44.5,60 36.9,42.8 		"/>
	</g>
	<g>
		<line fill="none" stroke="none" stroke-linecap="round" stroke-miterlimit="10" x1="0.4" y1="0.6" x2="26.9" y2="60"/>
		<polyline fill="none" stroke="none" stroke-linecap="round" stroke-miterlimit="10" points="44.5,60 36.9,42.8 18,0.6 		"/>
		<line fill="none" stroke="none" stroke-linecap="round" stroke-miterlimit="10" x1="0.4" y1="0.6" x2="18" y2="0.6"/>
		<line fill="none" stroke="none" stroke-linecap="round" stroke-miterlimit="10" x1="0.4" y1="119.4" x2="26.9" y2="60"/>
		<polyline fill="none" stroke="none" stroke-linecap="round" stroke-miterlimit="10" points="44.5,60 44.5,60 36.8,77.2 
			36.8,77.2 18.1,119.4 		"/>
		<line fill="none" stroke="none" stroke-linecap="round" stroke-miterlimit="10" x1="0.4" y1="119.4" x2="18.1" y2="119.4"/>
	</g>
</g>
</svg>
