<?xml version="1.0" encoding="utf-8"?>
<!-- Generator: Adobe Illustrator 19.2.0, SVG Export Plug-In . SVG Version: 6.00 Build 0)  -->
<svg version="1.1" id="レイヤー_1" xmlns="http://www.w3.org/2000/svg" xmlns:xlink="http://www.w3.org/1999/xlink" x="0px"
	 y="0px" viewBox="0 0 120 120" enable-background="new 0 0 120 120" xml:space="preserve">
<g>
	<path d="M102.6,15.7H17.4c-4.3,0-7.8,3.5-7.8,7.8v0.9c0,4.3,3.5,7.8,7.8,7.8h85.2c4.3,0,7.8-3.5,7.8-7.8v-0.9
		C110.4,19.2,106.9,15.7,102.6,15.7z"/>
	<path d="M102.6,51.7H17.4c-4.3,0-7.8,3.5-7.8,7.8v0.9c0,4.3,3.5,7.8,7.8,7.8h85.2c4.3,0,7.8-3.5,7.8-7.8v-0.9
		C110.4,55.2,106.9,51.7,102.6,51.7z"/>
	<path d="M102.6,87.7H17.4c-4.3,0-7.8,3.5-7.8,7.8v0.9c0,4.3,3.5,7.8,7.8,7.8h85.2c4.3,0,7.8-3.5,7.8-7.8v-0.9
		C110.4,91.3,106.9,87.7,102.6,87.7z"/>
</g>
</svg>
